<?xml version="1.0" standalone="no"?>
<!DOCTYPE svg PUBLIC "-//W3C//DTD SVG 1.1//EN" "http://www.w3.org/Graphics/SVG/1.1/DTD/svg11.dtd">
<svg xmlns="http://www.w3.org/2000/svg" xmlns:xlink="http://www.w3.org/1999/xlink" width="37.5" zoomAndPan="magnify" viewBox="0 0 37.5 37.499999" height="37.5" preserveAspectRatio="xMidYMid meet" version="1.0"><defs><g/></defs><g fill="#ffffff" fill-opacity="1"><g transform="translate(7.782946, 23.266034)"><g><path d="M 1.84375 0 C 1.707031 -0.238281 1.546875 -0.59375 1.359375 -1.0625 C 1.179688 -1.53125 1.03125 -2.0625 0.90625 -2.65625 C 0.78125 -3.257812 0.71875 -3.878906 0.71875 -4.515625 C 0.71875 -5.441406 0.835938 -6.378906 1.078125 -7.328125 C 1.328125 -8.285156 1.679688 -9.1875 2.140625 -10.03125 C 2.609375 -10.875 3.164062 -11.628906 3.8125 -12.296875 C 4.457031 -12.960938 5.179688 -13.488281 5.984375 -13.875 C 6.796875 -14.257812 7.660156 -14.453125 8.578125 -14.453125 L 10.515625 -14.453125 C 10.328125 -14.265625 10.203125 -13.976562 10.140625 -13.59375 C 10.078125 -13.207031 10.046875 -12.769531 10.046875 -12.28125 C 10.054688 -11.800781 10.0625 -11.320312 10.0625 -10.84375 L 10.0625 -1.140625 C 10.0625 -0.984375 10.054688 -0.816406 10.046875 -0.640625 C 10.035156 -0.460938 9.992188 -0.3125 9.921875 -0.1875 C 9.847656 -0.0625 9.722656 0 9.546875 0 C 8.929688 0 8.335938 -0.144531 7.765625 -0.4375 C 7.203125 -0.726562 6.660156 -1.128906 6.140625 -1.640625 C 5.628906 -2.148438 5.15625 -2.722656 4.71875 -3.359375 C 4.28125 -4.003906 3.890625 -4.675781 3.546875 -5.375 C 3.210938 -6.070312 2.9375 -6.753906 2.71875 -7.421875 C 2.507812 -8.085938 2.375 -8.707031 2.3125 -9.28125 C 2.09375 -8.726562 1.921875 -8.15625 1.796875 -7.5625 C 1.671875 -6.96875 1.609375 -6.359375 1.609375 -5.734375 C 1.609375 -4.503906 1.734375 -3.382812 1.984375 -2.375 C 2.234375 -1.375 2.644531 -0.609375 3.21875 -0.078125 L 3.21875 0 Z M 8.578125 -14.09375 C 7.546875 -14.09375 6.578125 -13.816406 5.671875 -13.265625 C 4.765625 -12.710938 3.984375 -11.984375 3.328125 -11.078125 C 3.140625 -10.140625 3.085938 -9.234375 3.171875 -8.359375 C 3.265625 -7.492188 3.453125 -6.6875 3.734375 -5.9375 C 4.023438 -5.1875 4.382812 -4.503906 4.8125 -3.890625 C 5.238281 -3.285156 5.691406 -2.765625 6.171875 -2.328125 C 6.648438 -1.898438 7.128906 -1.570312 7.609375 -1.34375 C 8.085938 -1.113281 8.523438 -1 8.921875 -1 C 8.992188 -1 9.03125 -1.046875 9.03125 -1.140625 C 9.039062 -1.242188 9.046875 -1.335938 9.046875 -1.421875 L 9.046875 -14.09375 Z M 8.578125 -14.09375 "/></g></g></g><g fill="#ffffff" fill-opacity="1"><g transform="translate(17.807251, 28.551269)"><g><path d="M 1 -10.4375 C 1 -10.90625 1 -11.367188 1 -11.828125 C 1.007812 -12.296875 0.984375 -12.710938 0.921875 -13.078125 C 0.859375 -13.453125 0.738281 -13.734375 0.5625 -13.921875 L 7.015625 -13.921875 C 7.503906 -13.921875 7.976562 -13.84375 8.4375 -13.6875 C 8.90625 -13.539062 9.289062 -13.285156 9.59375 -12.921875 C 9.894531 -12.566406 10.046875 -12.085938 10.046875 -11.484375 C 10.046875 -10.953125 9.914062 -10.382812 9.65625 -9.78125 C 9.394531 -9.175781 9.023438 -8.570312 8.546875 -7.96875 C 8.066406 -7.375 7.488281 -6.820312 6.8125 -6.3125 C 6.144531 -5.8125 5.40625 -5.394531 4.59375 -5.0625 C 3.78125 -4.738281 2.910156 -4.539062 1.984375 -4.46875 L 1.984375 -3.484375 C 1.984375 -3.015625 1.976562 -2.546875 1.96875 -2.078125 C 1.96875 -1.617188 1.992188 -1.203125 2.046875 -0.828125 C 2.109375 -0.460938 2.234375 -0.1875 2.421875 0 L 0.5625 0 C 0.738281 -0.1875 0.859375 -0.460938 0.921875 -0.828125 C 0.984375 -1.203125 1.007812 -1.617188 1 -2.078125 C 1 -2.546875 1 -3.015625 1 -3.484375 Z M 1.984375 -13.609375 L 1.984375 -4.8125 C 2.941406 -4.90625 3.84375 -5.140625 4.6875 -5.515625 C 5.539062 -5.890625 6.289062 -6.367188 6.9375 -6.953125 C 7.582031 -7.546875 8.085938 -8.207031 8.453125 -8.9375 C 8.816406 -9.664062 9 -10.4375 9 -11.25 C 9 -11.78125 8.898438 -12.195312 8.703125 -12.5 C 8.515625 -12.8125 8.257812 -13.050781 7.9375 -13.21875 C 7.625 -13.382812 7.269531 -13.488281 6.875 -13.53125 C 6.488281 -13.582031 6.097656 -13.609375 5.703125 -13.609375 Z M 1.984375 -13.609375 "/></g></g></g></svg>