<?xml version="1.0" encoding="UTF-8" standalone="no"?>
<!-- Generated by SVGMaker - https://svgmaker.io -->
<!-- Prompt: image has been manually edited -->
<!-- Quality: medium -->
<!-- Type: crafted -->
<!-- Created: 2026-03-18T14:38:04.126Z -->
<svg xmlns="http://www.w3.org/2000/svg" xmlns:xlink="http://www.w3.org/1999/xlink" version="1.1" width="1024" height="1024" viewBox="0 0 2048 2048">
<desc>Created with SVGMaker Editor 3.0.0</desc>
<defs>
</defs>
<path transform="translate(0,0)" style="fill: rgb(255,255,255)" stroke-linecap="round" d="M 1469.95 1012.44 C 1490.01 1014.55 1497.9 1036.3 1507.43 1051.9 L 1544.9 1113.3 L 1669.86 1319.75 L 1820.28 1567.47 C 1839 1598.88 1858.99 1630.41 1876.86 1662.28 C 1882.24 1671.89 1884.66 1687.43 1883.23 1698.47 C 1880.85 1715.62 1871.71 1731.11 1857.83 1741.48 C 1845.41 1750.92 1829.95 1756.51 1814.42 1755.97 C 1791.17 1755.17 1765.72 1750.87 1742.44 1747.74 L 1610.41 1729.93 L 1143.03 1666.63 L 1003.33 1647.5 C 973.763 1643.48 938.409 1637.14 909.081 1637.94 C 894.912 1638.32 869.903 1643.54 855.5 1646.1 L 778.64 1659.78 L 727.059 1669.13 C 718.206 1670.72 703.371 1674.27 694.879 1673.7 C 676.84 1672.5 671.529 1655.35 679.348 1641.04 C 688.853 1623.64 698.585 1607.63 708.439 1591.03 L 765.244 1495.3 L 814.939 1410.99 C 823.646 1396.19 840.4 1365.91 851.001 1354.27 C 868.26 1335.33 930.835 1340.94 955.549 1340.96 L 1136.09 1341.14 L 1188.39 1341.16 C 1200.81 1341.16 1211.97 1341.34 1224.39 1340.16 C 1255.81 1337.17 1268.06 1311.63 1282.88 1287.7 C 1289.29 1277.36 1295.62 1267.11 1302.03 1256.86 L 1401.32 1097.88 L 1429.64 1052.23 C 1435.17 1043.29 1440.88 1033.46 1447.14 1025.1 C 1454.33 1015.48 1458.71 1013.81 1469.95 1012.44 Z"></path>
<path transform="translate(0,0)" style="fill: rgb(255,255,255)" stroke-linecap="round" d="M 737.268 734.257 C 743.312 733.909 752.191 734.146 756.753 738.242 C 771.939 751.875 786.136 780.064 796.508 797.353 L 846.144 879.492 C 864.154 909.101 881.994 938.814 899.663 968.629 C 910.626 986.909 921.879 1005.25 932.21 1023.81 C 937.667 1034.49 939.088 1048.44 936.422 1059.98 C 933.034 1074.64 923.804 1087.42 916.145 1100.22 L 882.817 1155.57 L 780.461 1324.83 L 646.084 1549.36 C 629.37 1577.42 612.483 1605.38 595.424 1633.24 C 583.01 1653.57 568.489 1684.88 545.77 1694.28 C 526.424 1702.28 500.71 1704.67 479.895 1708.64 C 436.897 1716.85 392.835 1722.26 349.939 1730.75 L 275.496 1743.21 C 262.219 1745.48 241.98 1749.78 229.307 1749.73 C 220.982 1749.69 212.733 1748.14 204.966 1745.14 C 190.022 1739.45 178.003 1727.98 171.63 1713.32 C 158.063 1682.38 172.979 1660.03 189.625 1635.46 C 196.091 1625.92 202.746 1613.84 208.866 1603.87 C 239.48 1554.32 269.827 1504.61 299.905 1454.73 L 646.861 877.77 C 663.547 849.633 679.746 821.21 695.452 792.514 C 704.036 776.883 713.304 758.276 723.312 743.542 C 726.377 739.031 732.348 736.393 737.268 734.257 Z"></path>
<path transform="translate(0,0)" style="fill: rgb(255,255,255)" stroke-linecap="round" d="M 1018.83 308.376 C 1060.74 305.543 1069.93 331.202 1088.35 361.946 L 1123.05 419.999 L 1231.06 599.013 L 1355.18 805.199 L 1389.53 862.821 C 1405.57 889.783 1422.15 908.712 1403.87 939.904 C 1396.19 953.013 1388.29 966.262 1380.38 979.277 L 1333.35 1056.9 C 1295.35 1119.72 1257.74 1183.36 1217.69 1244.89 C 1213.3 1251.64 1206.36 1255.36 1199.26 1258.65 C 1182.48 1263.57 1170.82 1255.23 1162.29 1241.35 C 1144.95 1213.16 1127.98 1184.75 1110.75 1156.49 L 985.038 950.059 L 875.192 769.349 C 854.804 735.952 833.742 702.946 813.999 669.148 C 809.882 661.365 805.21 644.352 806.564 635.548 C 810.582 609.434 831.456 580.919 844.941 558.488 L 910.948 449.415 L 958.688 369.667 C 974.252 343.616 985.587 313.43 1018.83 308.376 Z"></path>
</svg>